<svg width="74" height="74" viewBox="0 0 74 74" fill="none" xmlns="http://www.w3.org/2000/svg">
<path d="M50.8752 58.09L47.5452 57.165L48.4702 60.495C45.1402 63.455 41.2552 65.305 37.0002 65.305C32.9302 65.305 29.0452 63.455 25.5302 60.495L26.4552 57.165L23.1252 58.09C17.0202 51.43 12.9502 41.07 12.9502 33.115C12.9502 28.305 14.4302 23.68 17.0202 19.795L22.9402 21.46L21.2752 15.17C25.5302 11.47 31.0802 9.25 37.1852 9.25C43.2902 9.25 48.8402 11.47 53.0952 15.17L51.4302 21.46L57.3502 19.795C59.9402 23.68 61.4202 28.12 61.4202 33.115C61.0502 41.07 57.1652 51.245 50.8752 58.09Z" stroke="black" stroke-width="2" stroke-miterlimit="10" stroke-linecap="round" stroke-linejoin="round"/>
<path d="M27.0098 40.1451C30.3815 40.1451 33.1148 38.4886 33.1148 36.4451C33.1148 34.4017 30.3815 32.7451 27.0098 32.7451C23.6381 32.7451 20.9048 34.4017 20.9048 36.4451C20.9048 38.4886 23.6381 40.1451 27.0098 40.1451Z" stroke="black" stroke-width="2" stroke-miterlimit="10" stroke-linecap="round" stroke-linejoin="round"/>
<path d="M47.1748 40.1451C50.5465 40.1451 53.2798 38.4886 53.2798 36.4451C53.2798 34.4017 50.5465 32.7451 47.1748 32.7451C43.8031 32.7451 41.0698 34.4017 41.0698 36.4451C41.0698 38.4886 43.8031 40.1451 47.1748 40.1451Z" stroke="black" stroke-width="2" stroke-miterlimit="10" stroke-linecap="round" stroke-linejoin="round"/>
<path d="M36.9997 54.7602C40.0649 54.7602 42.5497 53.6835 42.5497 52.3552C42.5497 51.027 40.0649 49.9502 36.9997 49.9502C33.9345 49.9502 31.4497 51.027 31.4497 52.3552C31.4497 53.6835 33.9345 54.7602 36.9997 54.7602Z" stroke="black" stroke-width="2" stroke-miterlimit="10" stroke-linecap="round" stroke-linejoin="round"/>
</svg>
