<svg width="72" height="72" viewBox="0 0 72 72" fill="none" xmlns="http://www.w3.org/2000/svg">
<path d="M28.4401 37.08C28.4401 37.08 13.3201 25.56 23.7601 9L41.4001 56.52" stroke="black" stroke-width="2" stroke-miterlimit="10" stroke-linecap="round" stroke-linejoin="round"/>
<path d="M49.6802 63.7198C54.3526 63.7198 58.1402 59.9322 58.1402 55.2598C58.1402 50.5875 54.3526 46.7998 49.6802 46.7998C45.0079 46.7998 41.2202 50.5875 41.2202 55.2598C41.2202 59.9322 45.0079 63.7198 49.6802 63.7198Z" fill="#DEB3A4" stroke="black" stroke-width="2" stroke-miterlimit="10" stroke-linecap="round" stroke-linejoin="round"/>
<path d="M44.2798 37.08C44.2798 37.08 59.3998 25.56 48.9598 9L31.3198 56.52" stroke="black" stroke-width="2" stroke-miterlimit="10" stroke-linecap="round" stroke-linejoin="round"/>
<path d="M22.8599 63.7198C27.5322 63.7198 31.3199 59.9322 31.3199 55.2598C31.3199 50.5875 27.5322 46.7998 22.8599 46.7998C18.1876 46.7998 14.3999 50.5875 14.3999 55.2598C14.3999 59.9322 18.1876 63.7198 22.8599 63.7198Z" fill="#DEB3A4" stroke="black" stroke-width="2" stroke-miterlimit="10" stroke-linecap="round" stroke-linejoin="round"/>
</svg>
