<svg width="111" height="111" viewBox="0 0 111 111" fill="none" xmlns="http://www.w3.org/2000/svg">
<path d="M72.7052 50.679C66.8777 50.679 62.1602 55.3964 62.1602 61.2239V89.2514H82.9727V61.2239C83.2502 55.3964 78.5327 50.679 72.7052 50.679Z" stroke="black" stroke-width="2" stroke-miterlimit="10" stroke-linecap="round" stroke-linejoin="round"/>
<path d="M62.4375 81.4814H83.25" stroke="black" stroke-width="2" stroke-miterlimit="10" stroke-linecap="round" stroke-linejoin="round"/>
<path d="M49.6725 89.2513H27.75V60.6688C27.75 58.7263 29.415 57.0613 31.3575 57.0613H46.065C48.0075 57.0613 49.6725 58.7263 49.6725 60.6688V89.2513Z" fill="#DEB3A4" stroke="black" stroke-width="2" stroke-miterlimit="10" stroke-linecap="round" stroke-linejoin="round"/>
<path d="M28.3052 64.8313H49.3952" stroke="black" stroke-width="2" stroke-miterlimit="10" stroke-linecap="round" stroke-linejoin="round"/>
<path d="M47.4526 39.8562H30.2476V57.0612H47.4526V39.8562Z" fill="#DEB3A4" stroke="black" stroke-width="2" stroke-miterlimit="10" stroke-linecap="round" stroke-linejoin="round"/>
<path d="M44.6776 39.8563H32.7451V28.2013L42.1801 22.3738C43.2901 21.8188 44.6776 22.6513 44.6776 24.0388V39.8563Z" stroke="black" stroke-width="2" stroke-miterlimit="10" stroke-linecap="round" stroke-linejoin="round"/>
</svg>
