<svg width="72" height="72" viewBox="0 0 72 72" fill="none" xmlns="http://www.w3.org/2000/svg">
<path d="M61.5598 36.5401C59.5798 47.5201 50.0398 55.08 39.4198 55.08C37.9798 55.08 36.7198 54.9 35.2798 54.72C37.6198 52.38 39.4198 49.68 40.6798 46.98C40.6798 46.8 40.8598 46.6201 40.8598 46.4401C41.3998 45.3601 41.7598 44.28 42.1198 43.2C42.2998 42.84 42.2998 42.3001 42.4798 41.9401C43.9198 40.6801 45.3598 39.6 46.9798 38.7C51.4798 36.54 56.5198 35.6401 61.5598 36.5401Z" fill="#DEB3A4" stroke="black" stroke-width="2" stroke-miterlimit="10" stroke-linecap="round" stroke-linejoin="round"/>
<path d="M35.28 54.72C33.84 54.9 32.58 55.08 31.14 55.08C20.34 55.08 10.98 47.5201 9 36.5401C14.22 35.6401 19.26 36.54 23.4 38.7C25.02 39.6 26.64 40.6801 27.9 41.9401C28.08 42.3001 28.08 42.84 28.26 43.2C28.62 44.28 28.98 45.3601 29.34 46.4401C29.34 46.6201 29.52 46.8 29.52 46.98C31.14 49.68 32.94 52.38 35.28 54.72Z" fill="#DEB3A4" stroke="black" stroke-width="2" stroke-miterlimit="10" stroke-linecap="round" stroke-linejoin="round"/>
<path d="M43.2001 35.46C43.2001 37.62 43.0201 39.78 42.4801 41.94C42.3001 42.3 42.3001 42.84 42.1201 43.2C41.7601 44.28 41.4001 45.36 40.8601 46.44C40.8601 46.62 40.6801 46.8 40.6801 46.98C39.4201 49.86 37.4401 52.3799 35.2801 54.7199C32.9401 52.3799 31.1401 49.68 29.8801 46.98C29.8801 46.8 29.7001 46.62 29.7001 46.44C29.1601 45.36 28.8001 44.28 28.6201 43.2C28.4401 42.84 28.4401 42.3 28.2601 41.94C27.0001 36.9 27.3601 31.5 28.9801 26.64C30.2401 22.86 32.4001 19.26 35.4601 16.2C38.5201 19.26 40.6801 22.86 41.9401 26.64C42.8401 29.52 43.2001 32.4 43.2001 35.46Z" fill="#DEB3A4" stroke="black" stroke-width="2" stroke-miterlimit="10" stroke-linecap="round" stroke-linejoin="round"/>
<path d="M52.5604 23.9399C52.5604 29.5199 50.5804 34.7399 47.1604 38.6999C45.5404 39.5999 43.9204 40.6799 42.6604 41.9399C43.2004 39.7799 43.3804 37.6199 43.3804 35.4599C43.3804 32.3999 42.8404 29.5199 41.9404 26.6399C45.0004 24.8399 48.6004 23.9399 52.5604 23.9399Z" stroke="black" stroke-width="2" stroke-miterlimit="10" stroke-linecap="round" stroke-linejoin="round"/>
<path d="M28.0802 41.9399C26.6402 40.6799 25.2002 39.5999 23.5802 38.6999C20.1602 34.7399 18.1802 29.5199 18.1802 23.9399C21.9602 23.9399 25.7402 24.8399 28.8002 26.6399C27.0002 31.4999 26.8202 36.8999 28.0802 41.9399Z" stroke="black" stroke-width="2" stroke-miterlimit="10" stroke-linecap="round" stroke-linejoin="round"/>
</svg>
