<svg width="77" height="77" viewBox="0 0 77 77" fill="none" xmlns="http://www.w3.org/2000/svg">
<path d="M40.2324 6.69995C46.2914 6.69999 50.3513 9.74434 52.8613 12.7361C54.1134 14.2285 54.9891 15.7171 55.5527 16.8318C55.8351 17.3903 56.0415 17.8583 56.1777 18.1902C56.213 18.276 56.2414 18.3537 56.2676 18.4207C61.6612 22.2941 64.7025 26.7284 66.1777 31.238C67.6712 35.8037 67.537 40.3727 66.7188 44.4021C65.9008 48.4297 64.3922 51.9534 63.0957 54.4636C62.4462 55.7211 61.8464 56.7309 61.4072 57.4285C61.1877 57.7771 61.008 58.0483 60.8818 58.2341C60.8188 58.327 60.769 58.3986 60.7344 58.448C60.7171 58.4726 60.7039 58.4922 60.6943 58.5056C60.6896 58.5123 60.6854 58.5174 60.6826 58.5212C60.6813 58.5231 60.6805 58.5249 60.6797 58.5261L60.6777 58.5281C60.6748 58.5267 60.6298 58.494 59.8672 57.9421L60.6777 58.5291C60.4081 58.9015 59.9185 59.0422 59.4922 58.8699C59.0659 58.6975 58.8119 58.2557 58.877 57.8005C58.8773 57.7982 58.8783 57.7946 58.8789 57.7898C58.8806 57.776 58.8834 57.7521 58.8867 57.7195C58.8933 57.6543 58.9018 57.5525 58.9092 57.4197C58.9239 57.1535 58.9329 56.7632 58.9053 56.2859C58.8498 55.327 58.65 54.0386 58.0811 52.7039C56.9723 50.1026 54.3875 47.1414 48.1719 46.2273C41.2302 45.2065 37.2004 40.9016 34.9355 36.9255C33.8052 34.9412 33.1052 33.0248 32.6865 31.6062C32.5427 31.119 32.4346 30.6881 32.3506 30.3318C26.8625 32.1206 24.5105 36.0107 23.5098 39.5876C22.9748 41.4998 22.8299 43.3198 22.8213 44.6667C22.817 45.338 22.847 45.8865 22.877 46.2634C22.8919 46.4518 22.907 46.5974 22.918 46.6931C22.9234 46.7407 22.9277 46.7764 22.9307 46.7986C22.9321 46.8095 22.933 46.8176 22.9336 46.822C22.9338 46.8233 22.9345 46.8243 22.9346 46.825L22.9443 46.9421C22.952 47.2154 22.8472 47.4819 22.6514 47.6775C22.4275 47.901 22.1108 48.0051 21.7979 47.9587L21.9443 46.9695C21.7978 47.9587 21.7975 47.9588 21.7969 47.9587H21.7959C21.7949 47.9586 21.7933 47.958 21.792 47.9578C21.7892 47.9573 21.7853 47.9574 21.7812 47.9568C21.7731 47.9555 21.7621 47.9531 21.749 47.9509C21.7229 47.9465 21.6872 47.9408 21.6426 47.9324C21.5527 47.9154 21.426 47.8894 21.2686 47.8523C20.954 47.7782 20.513 47.659 19.9883 47.4744C18.9406 47.1057 17.5432 46.4714 16.1426 45.408C13.3029 43.2518 10.5499 39.4 10.5498 32.7253C10.5498 25.9923 13.6951 22.27 16.8926 20.2781C18.4676 19.297 20.035 18.7459 21.2041 18.4392C21.7903 18.2855 22.2818 18.1921 22.6309 18.1365C22.6381 18.1353 22.6452 18.1337 22.6523 18.1326C22.6621 18.1151 22.6723 18.0972 22.6826 18.0789C22.8675 17.7505 23.1423 17.2869 23.5068 16.7332C24.2347 15.6273 25.3279 14.1522 26.793 12.6746C29.7183 9.7242 34.1938 6.69995 40.2324 6.69995Z" fill="#DEB3A4" stroke="black" stroke-width="2" stroke-miterlimit="10" stroke-linecap="round" stroke-linejoin="round"/>
<path d="M56.5948 50.8201C56.5948 50.8201 48.7023 69.1076 38.8848 69.1076C31.2673 69.1076 25.3379 58.3765 23.1958 53.9001" stroke="black" stroke-width="2" stroke-miterlimit="10" stroke-linecap="round" stroke-linejoin="round"/>
</svg>
